<svg width="22" height="24" viewBox="0 0 22 24" fill="none" xmlns="http://www.w3.org/2000/svg">
<path d="M20.4875 7.38749H19.3625L16.8125 0.899993C16.6625 0.562493 16.2875 0.412493 15.95 0.524993C15.6125 0.674993 15.4625 1.04999 15.575 1.38749L17.9375 7.42499H4.02505L6.38755 1.38749C6.53755 1.04999 6.35005 0.674993 6.01255 0.524993C5.67505 0.374993 5.30005 0.562493 5.15005 0.899993L2.60005 7.38749H1.47505C0.912549 7.38749 0.425049 7.83749 0.425049 8.43749V11.625C0.425049 12.1875 0.875049 12.675 1.47505 12.675H1.51255L2.48755 21.225C2.63755 22.5375 3.76255 23.55 5.11255 23.55H16.8125C18.1625 23.55 19.2875 22.5375 19.4375 21.225L20.4125 12.675H20.4501C21.0126 12.675 21.5 12.225 21.5 11.625V8.43749C21.5375 7.87499 21.0875 7.38749 20.4875 7.38749ZM1.77505 8.69999H20.225V11.325H1.77505V8.69999ZM18.1625 21.0375C18.0875 21.7125 17.525 22.2 16.85 22.2H5.15005C4.47505 22.2 3.91255 21.7125 3.83755 21.0375L2.86255 12.6375H19.1376L18.1625 21.0375Z" fill="#2D2A24"/>
<path d="M7.06257 19.05C7.43757 19.05 7.73757 18.75 7.73757 18.375V15.4875C7.73757 15.1125 7.43757 14.8125 7.06257 14.8125C6.68757 14.8125 6.38757 15.1125 6.38757 15.4875V18.375C6.38757 18.75 6.68757 19.05 7.06257 19.05Z" fill="#2D2A24"/>
<path d="M14.9376 19.05C15.3126 19.05 15.6126 18.75 15.6126 18.375V15.4875C15.6126 15.1125 15.3126 14.8125 14.9376 14.8125C14.5626 14.8125 14.2626 15.1125 14.2626 15.4875V18.375C14.3001 18.75 14.6001 19.05 14.9376 19.05Z" fill="#2D2A24"/>
</svg>
